<svg width="26" height="26" viewBox="0 0 26 26" fill="none" xmlns="http://www.w3.org/2000/svg">
<path d="M13 2.16667C7.04166 2.16667 2.16666 7.04167 2.16666 13C2.16666 18.9583 7.04166 23.8333 13 23.8333C18.9583 23.8333 23.8333 18.9583 23.8333 13C23.8333 7.04167 18.9583 2.16667 13 2.16667ZM14.0833 4.40917C17.9942 4.89667 21.1033 8.01667 21.5908 11.9167H14.0833V4.40917ZM4.33333 13C4.33333 8.60167 7.65916 4.94 11.9167 4.40917V21.6017C7.65916 21.06 4.33333 17.3983 4.33333 13ZM14.0833 21.5908V14.0833H21.5908C21.349 15.99 20.4803 17.7622 19.1213 19.1213C17.7622 20.4803 15.99 21.349 14.0833 21.5908Z" fill="#9DAABB"/>
</svg>
