<svg width="100%" height="100%" viewBox="0 0 50 50" fill="none" xmlns="http://www.w3.org/2000/svg">
<path d="M27.4 29.8L29.8 29.8V33.292C32.668 31.636 34.6 28.54 34.6 25C34.6 20.536 31.528 16.78 27.4 15.712V13.24C32.872 14.356 37 19.192 37 25C37 28.924 35.104 32.416 32.188 34.6H34.6V37H27.4V29.8ZM22.6 20.2H20.2V16.708C17.332 18.364 15.4 21.46 15.4 25C15.4 29.464 18.472 33.22 22.6 34.288V36.76C17.128 35.644 13 30.808 13 25C13 21.076 14.896 17.584 17.812 15.4H15.4L15.4 13H22.6L22.6 20.2Z" fill="currentColor"/>
</svg>
