<svg width="16" height="16" viewBox="0 0 16 16" fill="none" xmlns="http://www.w3.org/2000/svg">
<path d="M7.99999 1.33334C5.19999 1.33334 2.66666 3.48001 2.66666 6.80001C2.66666 8.92001 4.29999 11.4133 7.55999 14.2867C7.81332 14.5067 8.19332 14.5067 8.44666 14.2867C11.7 11.4133 13.3333 8.92001 13.3333 6.80001C13.3333 3.48001 10.8 1.33334 7.99999 1.33334ZM7.99999 8.00001C7.26666 8.00001 6.66666 7.40001 6.66666 6.66668C6.66666 5.93334 7.26666 5.33334 7.99999 5.33334C8.73332 5.33334 9.33332 5.93334 9.33332 6.66668C9.33332 7.40001 8.73332 8.00001 7.99999 8.00001Z" fill="white"/>
</svg>
